# xmcd
#
# Track frame offsets:
#	150
#	21739
#	62571
#	87737
#	115513
#	145182
#	168467
#	194741
#	223186
#	253588
#
# Disc length: 3841 seconds
# Revision: 0
# Processed by: cddbd v1.5.2PL0 Copyright (c) Steve Scherf et al.
# Submitted via: dBpowerAMP V12.0
#
DISCID=9b0eff0a
DTITLE=LAVISO, Christian - Chaltouné
DYEAR=2006
DGENRE=Creole jazz
TTITLE0=Jou jédi la
TTITLE1=Enmé - Lendépandans
TTITLE2=Lu (An mémwa a Lucien Martial)
TTITLE3=San mélé [feat. LUCILE KANCEL and PATRICE HULMANN]
TTITLE4=Le premier jour - 1802 [feat. LUCILE KANCEL and PATRICE HULMANN]
TTITLE5=Swing infernal [feat. LUCILE KANCEL and PATRICE HULMANN]
TTITLE6=Lien éternel
TTITLE7=Mèsi takout
TTITLE8=Nikol [feat. LUCILE KANCEL and PATRICE HULMANN]
TTITLE9=Neg mawon [feat. LUCILE KANCEL and PATRICE HULMANN]
EXTD=
EXTT0=
EXTT1=
EXTT2=
EXTT3=
EXTT4=
EXTT5=
EXTT6=
EXTT7=
EXTT8=
EXTT9=
PLAYORDER=
